<svg id="vector" xmlns="http://www.w3.org/2000/svg" width="24" height="24" viewBox="0 0 156 156"><path fill="#FFFFFF" d="M78,78m-78,0a78,78 0,1 1,156 0a78,78 0,1 1,-156 0" fill-opacity="0.3" stroke="#000000" stroke-opacity="0" stroke-width="1" id="path_0"/><path fill="#FFFFFF" d="M82,75L104.5,75C106.433,75 108,76.567 108,78.5C108,80.433 106.433,82 104.5,82L82,82L82,104.5C82,106.433 80.433,108 78.5,108C76.567,108 75,106.433 75,104.5L75,82L52.5,82C50.567,82 49,80.433 49,78.5C49,76.567 50.567,75 52.5,75L75,75L75,52.5C75,50.567 76.567,49 78.5,49C80.433,49 82,50.567 82,52.5L82,75Z" stroke="#000000" stroke-opacity="0" stroke-width="1" id="path_1"/></svg>