<svg width="26" height="26" viewBox="0 0 26 26" fill="none" xmlns="http://www.w3.org/2000/svg">
<path fill-rule="evenodd" clip-rule="evenodd" d="M16.3693 3.53016C16.0047 3.16556 15.8224 2.98326 15.6097 2.85289C15.4211 2.7373 15.2155 2.65213 15.0003 2.60048C14.7577 2.54224 14.4999 2.54224 13.9843 2.54224H11.6517C10.2516 2.54224 9.5515 2.54224 9.01672 2.81472C8.54631 3.0544 8.16386 3.43685 7.92418 3.90726C7.6517 4.44204 7.6517 5.1421 7.6517 6.54223V16.4612C7.6517 17.8613 7.6517 18.5614 7.92418 19.0961C8.16386 19.5665 8.54631 19.949 9.01672 20.1887C9.5515 20.4612 10.2516 20.4612 11.6517 20.4612H17.3544C18.7545 20.4612 19.4546 20.4612 19.9894 20.1887C20.4598 19.949 20.8422 19.5665 21.0819 19.0961C21.3544 18.5614 21.3544 17.8613 21.3544 16.4612V9.91234C21.3544 9.39672 21.3544 9.13891 21.2962 8.89629C21.2445 8.68118 21.1593 8.47555 21.0437 8.28693C20.9134 8.07419 20.7311 7.89189 20.3665 7.52729L16.3693 3.53016ZM14.8709 4.28988V7.42141C14.8709 7.98147 14.8709 8.26149 14.9799 8.4754C15.0758 8.66357 15.2288 8.81655 15.4169 8.91242C15.6308 9.02141 15.9109 9.02141 16.4709 9.02141H19.6029C19.5626 8.9721 19.5077 8.91715 19.4238 8.83324L15.0615 4.471C14.9762 4.3857 14.9209 4.33033 14.8709 4.28988ZM19.7531 10.6233H17.2733C15.8732 10.6233 15.1731 10.6233 14.6383 10.3508C14.1679 10.1112 13.7855 9.7287 13.5458 9.25829C13.2733 8.72351 13.2733 8.02345 13.2733 6.62332V4.1417H10.8531C10.293 4.1417 10.013 4.1417 9.79908 4.25069C9.61092 4.34656 9.45794 4.49954 9.36206 4.68771C9.25307 4.90162 9.25307 5.18164 9.25307 5.7417V17.2617C9.25307 17.8217 9.25307 18.1018 9.36206 18.3157C9.45794 18.5038 9.61092 18.6568 9.79908 18.7527C10.013 18.8617 10.293 18.8617 10.8531 18.8617H18.1531C18.7131 18.8617 18.9932 18.8617 19.2071 18.7527C19.3952 18.6568 19.5482 18.5038 19.6441 18.3157C19.7531 18.1018 19.7531 17.8217 19.7531 17.2617V10.6233Z" fill="black" fill-opacity="0.8"/>
<path d="M5.44551 8.25616C5.2241 8.25616 5.1134 8.25616 5.02429 8.28691C4.86096 8.34328 4.73262 8.47162 4.67626 8.63495C4.64551 8.72406 4.64551 8.83476 4.64551 9.05616V17.8956C4.6455 18.7068 4.64549 19.3641 4.68904 19.8971C4.73395 20.4468 4.82915 20.9343 5.05968 21.3867C5.424 22.1017 6.00533 22.6831 6.72034 23.0474C7.17279 23.2779 7.66024 23.3731 8.20997 23.418C8.74294 23.4616 9.4003 23.4616 10.2115 23.4616H15.5374C15.7588 23.4616 15.8695 23.4616 15.9586 23.4308C16.1219 23.3745 16.2503 23.2461 16.3066 23.0828C16.3374 22.9937 16.3374 22.883 16.3374 22.6616C16.3374 22.4402 16.3374 22.3295 16.3066 22.2404C16.2503 22.077 16.1219 21.9487 15.9586 21.8923C15.8695 21.8616 15.7588 21.8616 15.5374 21.8616H10.2455C9.39223 21.8616 8.80038 21.8609 8.34026 21.8234C7.88948 21.7865 7.63602 21.7182 7.44673 21.6218C7.03277 21.4109 6.69622 21.0743 6.48529 20.6603C6.38884 20.4711 6.32055 20.2176 6.28372 19.7668C6.24613 19.3067 6.24551 18.7148 6.24551 17.8616V9.05616C6.24551 8.83476 6.24551 8.72406 6.21476 8.63495C6.1584 8.47162 6.03006 8.34328 5.86673 8.28691C5.77761 8.25616 5.66691 8.25616 5.44551 8.25616Z" fill="black" fill-opacity="0.8"/>
</svg>
