<svg width="26" height="26" viewBox="0 0 26 26" fill="none" xmlns="http://www.w3.org/2000/svg">
<path d="M18.5338 20.443C18.3903 20.2995 18.3185 20.2277 18.2451 20.1884C18.1128 20.1177 17.9841 20.1023 17.8388 20.1399C17.7582 20.1608 17.6616 20.2198 17.4683 20.3377C14.1617 22.3549 9.78654 21.9335 6.92651 19.0735C4.51732 16.6643 3.83851 13.18 4.89008 10.1649L6.52876 10.4817C7.28886 10.6287 7.66891 10.7022 7.83498 10.595C7.97846 10.5024 8.06364 10.342 8.06001 10.1713C8.05581 9.97365 7.7821 9.69993 7.23467 9.15251L5.7532 7.67103C5.7099 7.61908 5.64781 7.55699 5.55699 7.46617C5.43761 7.34679 5.35833 7.26751 5.28754 7.21538C5.21017 7.14946 5.14633 7.11017 5.076 7.09249C4.9663 7.0649 4.83295 7.08004 4.73222 7.13152C4.61122 7.19335 4.53532 7.3146 4.38351 7.5571L4.36355 7.58912C1.89327 11.5242 2.37046 16.7802 5.79513 20.2048C9.22509 23.6348 14.492 24.1082 18.429 21.625C18.6218 21.5034 18.7182 21.4426 18.783 21.3504C18.8874 21.2017 18.912 20.9817 18.843 20.8136C18.8002 20.7094 18.7114 20.6206 18.5338 20.443Z" fill="black" fill-opacity="0.8"/>
<path d="M7.46615 5.55695C7.60966 5.70047 7.68142 5.77223 7.75484 5.81151C7.88714 5.88229 8.01589 5.89766 8.16113 5.86001C8.24174 5.83911 8.33838 5.78015 8.53167 5.66223C11.8382 3.64505 16.2134 4.06647 19.0735 6.92651C21.485 9.33804 22.1628 12.8268 21.1068 15.8439L19.4712 15.5276C18.7111 15.3807 18.3311 15.3072 18.165 15.4144C18.0215 15.507 17.9363 15.6674 17.94 15.8381C17.9442 16.0357 18.2179 16.3094 18.7653 16.8569L20.4653 18.5568C20.6832 18.7748 20.7922 18.8837 20.924 18.9169C21.0337 18.9445 21.167 18.9293 21.2677 18.8779C21.3887 18.816 21.4646 18.6948 21.6165 18.4523C21.7767 18.1963 21.9245 17.9347 22.0598 17.6685C24.0366 13.8345 23.4183 9.00861 20.2048 5.79514C16.7749 2.36518 11.5079 1.8918 7.57093 4.375C7.37815 4.49659 7.28176 4.55739 7.21698 4.64959C7.11253 4.79827 7.08793 5.01828 7.15697 5.18635C7.19978 5.29058 7.28857 5.37937 7.46615 5.55695Z" fill="black" fill-opacity="0.8"/>
</svg>
