<svg id="vector" xmlns="http://www.w3.org/2000/svg" width="160" height="169" viewBox="0 0 160 169"><defs><clipPath id="clip_path_0"><path d="M24,1L138,1A15,15 0,0 1,153 16L153,130A15,15 0,0 1,138 145L24,145A15,15 0,0 1,9 130L9,16A15,15 0,0 1,24 1z"/></clipPath><clipPath id="clip_path_1"><path d="M16,9L144,9A16,16 0,0 1,160 25L160,153A16,16 0,0 1,144 169L16,169A16,16 0,0 1,0 153L0,25A16,16 0,0 1,16 9z"/></clipPath></defs><g id="g_0"><path fill="#ffffff" d="M24,1L138,1A15,15 0,0 1,153 16L153,130A15,15 0,0 1,138 145L24,145A15,15 0,0 1,9 130L9,16A15,15 0,0 1,24 1z" fill-opacity="0.5" clip-path="url(#clip_path_0)"/><path fill="#000000" d="M24,1L138,1A15,15 0,0 1,153 16L153,130A15,15 0,0 1,138 145L24,145A15,15 0,0 1,9 130L9,16A15,15 0,0 1,24 1z" fill-opacity="0.05"/></g><path fill="#000000" d="M24,0.84L138,0.84A15.16,15.16 0,0 1,153.16 16L153.16,130A15.16,15.16 0,0 1,138 145.16L24,145.16A15.16,15.16 0,0 1,8.84 130L8.84,16A15.16,15.16 0,0 1,24 0.84z" fill-opacity="0" stroke="#000000" stroke-opacity="0.1" stroke-width="0.327273" id="path_0"/><g id="g_1"><path fill="#ffffff" d="M20,9L140,9A20,20 0,0 1,160 29L160,149A20,20 0,0 1,140 169L20,169A20,20 0,0 1,0 149L0,29A20,20 0,0 1,20 9z" clip-path="url(#clip_path_1)"/><path fill="#000000" d="M21,26L67,26A4,4 0,0 1,71 30L71,76A4,4 0,0 1,67 80L21,80A4,4 0,0 1,17 76L17,30A4,4 0,0 1,21 26z" fill-opacity="0.04"/><path fill="#000000" d="M17,122C17,119.79 18.79,118 21,118H103C105.21,118 107,119.79 107,122V127C107,129.21 105.21,131 103,131H21C18.79,131 17,129.21 17,127V122Z" fill-opacity="0.04"/><path fill="#000000" d="M17,143C17,140.79 18.79,139 21,139H75C77.21,139 79,140.79 79,143V148C79,150.21 77.21,152 75,152H21C18.79,152 17,150.21 17,148V143Z" fill-opacity="0.04"/></g></svg>