<svg width="58" height="58" viewBox="0 0 58 58" fill="none" xmlns="http://www.w3.org/2000/svg">
<foreignObject x="0" y="0" width="0" height="0"><div xmlns="http://www.w3.org/1999/xhtml" style="backdrop-filter:blur(27.34px);clip-path:url(#bgblur_0_6122_38520_clip_path);height:100%;width:100%"></div></foreignObject><g data-figma-bg-blur-radius="54.6857">
<rect width="58" height="58" rx="29" fill="white" fill-opacity="0.2"/>
<g clip-path="url(#clip1_6122_38520)">
<g filter="url(#filter0_i_6122_38520)">
<path d="M16.0073 40.165C14.1883 40.165 13.2788 40.165 12.584 39.811C11.9728 39.4996 11.476 39.0028 11.1646 38.3916C10.8105 37.6968 10.8105 36.7873 10.8105 34.9682L10.8105 22.0802C10.8105 20.2611 10.8105 19.3516 11.1646 18.6568C11.476 18.0457 11.9728 17.5488 12.584 17.2374C13.2788 16.8834 14.1883 16.8834 16.0073 16.8834L42.0953 16.8834C43.9143 16.8834 44.8239 16.8834 45.5186 17.2374C46.1298 17.5488 46.6267 18.0457 46.9381 18.6568C47.2921 19.3516 47.2921 20.2611 47.2921 22.0802L47.2921 34.9682C47.2921 36.7873 47.2921 37.6968 46.9381 38.3916C46.6267 39.0027 46.1298 39.4996 45.5186 39.811C44.8239 40.165 43.9143 40.165 42.0953 40.165L16.0073 40.165Z" fill="#88868F"/>
<path d="M16.0073 40.165C14.1883 40.165 13.2788 40.165 12.584 39.811C11.9728 39.4996 11.476 39.0028 11.1646 38.3916C10.8105 37.6968 10.8105 36.7873 10.8105 34.9682L10.8105 22.0802C10.8105 20.2611 10.8105 19.3516 11.1646 18.6568C11.476 18.0457 11.9728 17.5488 12.584 17.2374C13.2788 16.8834 14.1883 16.8834 16.0073 16.8834L42.0953 16.8834C43.9143 16.8834 44.8239 16.8834 45.5186 17.2374C46.1298 17.5488 46.6267 18.0457 46.9381 18.6568C47.2921 19.3516 47.2921 20.2611 47.2921 22.0802L47.2921 34.9682C47.2921 36.7873 47.2921 37.6968 46.9381 38.3916C46.6267 39.0027 46.1298 39.4996 45.5186 39.811C44.8239 40.165 43.9143 40.165 42.0953 40.165L16.0073 40.165Z" fill="url(#paint0_radial_6122_38520)" fill-opacity="0.1"/>
<path d="M16.0073 40.165C14.1883 40.165 13.2788 40.165 12.584 39.811C11.9728 39.4996 11.476 39.0028 11.1646 38.3916C10.8105 37.6968 10.8105 36.7873 10.8105 34.9682L10.8105 22.0802C10.8105 20.2611 10.8105 19.3516 11.1646 18.6568C11.476 18.0457 11.9728 17.5488 12.584 17.2374C13.2788 16.8834 14.1883 16.8834 16.0073 16.8834L42.0953 16.8834C43.9143 16.8834 44.8239 16.8834 45.5186 17.2374C46.1298 17.5488 46.6267 18.0457 46.9381 18.6568C47.2921 19.3516 47.2921 20.2611 47.2921 22.0802L47.2921 34.9682C47.2921 36.7873 47.2921 37.6968 46.9381 38.3916C46.6267 39.0027 46.1298 39.4996 45.5186 39.811C44.8239 40.165 43.9143 40.165 42.0953 40.165L16.0073 40.165Z" fill="url(#paint1_radial_6122_38520)" fill-opacity="0.2"/>
</g>
<mask id="mask0_6122_38520" style="mask-type:alpha" maskUnits="userSpaceOnUse" x="10" y="16" width="38" height="25">
<path d="M16.0073 40.165C14.1883 40.165 13.2788 40.165 12.584 39.811C11.9728 39.4996 11.476 39.0028 11.1646 38.3916C10.8105 37.6968 10.8105 36.7873 10.8105 34.9682L10.8105 22.0802C10.8105 20.2611 10.8105 19.3516 11.1646 18.6568C11.476 18.0457 11.9728 17.5488 12.584 17.2374C13.2788 16.8834 14.1883 16.8834 16.0073 16.8834L42.0953 16.8834C43.9143 16.8834 44.8239 16.8834 45.5186 17.2374C46.1298 17.5488 46.6267 18.0457 46.9381 18.6568C47.2921 19.3516 47.2921 20.2611 47.2921 22.0802L47.2921 34.9682C47.2921 36.7873 47.2921 37.6968 46.9381 38.3916C46.6267 39.0027 46.1298 39.4996 45.5186 39.811C44.8239 40.165 43.9143 40.165 42.0953 40.165L16.0073 40.165Z" fill="#6D6C72"/>
<path d="M16.0073 40.165C14.1883 40.165 13.2788 40.165 12.584 39.811C11.9728 39.4996 11.476 39.0028 11.1646 38.3916C10.8105 37.6968 10.8105 36.7873 10.8105 34.9682L10.8105 22.0802C10.8105 20.2611 10.8105 19.3516 11.1646 18.6568C11.476 18.0457 11.9728 17.5488 12.584 17.2374C13.2788 16.8834 14.1883 16.8834 16.0073 16.8834L42.0953 16.8834C43.9143 16.8834 44.8239 16.8834 45.5186 17.2374C46.1298 17.5488 46.6267 18.0457 46.9381 18.6568C47.2921 19.3516 47.2921 20.2611 47.2921 22.0802L47.2921 34.9682C47.2921 36.7873 47.2921 37.6968 46.9381 38.3916C46.6267 39.0027 46.1298 39.4996 45.5186 39.811C44.8239 40.165 43.9143 40.165 42.0953 40.165L16.0073 40.165Z" fill="url(#paint2_radial_6122_38520)" fill-opacity="0.4"/>
<path d="M16.0073 40.165C14.1883 40.165 13.2788 40.165 12.584 39.811C11.9728 39.4996 11.476 39.0028 11.1646 38.3916C10.8105 37.6968 10.8105 36.7873 10.8105 34.9682L10.8105 22.0802C10.8105 20.2611 10.8105 19.3516 11.1646 18.6568C11.476 18.0457 11.9728 17.5488 12.584 17.2374C13.2788 16.8834 14.1883 16.8834 16.0073 16.8834L42.0953 16.8834C43.9143 16.8834 44.8239 16.8834 45.5186 17.2374C46.1298 17.5488 46.6267 18.0457 46.9381 18.6568C47.2921 19.3516 47.2921 20.2611 47.2921 22.0802L47.2921 34.9682C47.2921 36.7873 47.2921 37.6968 46.9381 38.3916C46.6267 39.0027 46.1298 39.4996 45.5186 39.811C44.8239 40.165 43.9143 40.165 42.0953 40.165L16.0073 40.165Z" fill="url(#paint3_radial_6122_38520)" fill-opacity="0.2"/>
</mask>
<g mask="url(#mask0_6122_38520)">
<g filter="url(#filter1_f_6122_38520)">
<path d="M10.8525 34.9678L10.8525 22.0801C10.8525 21.1699 10.8524 20.4897 10.8965 19.9502C10.9405 19.4113 11.0277 19.0163 11.2012 18.6758C11.5085 18.0725 11.9993 17.5818 12.6025 17.2744C12.9431 17.1009 13.3389 17.0128 13.8779 16.9687C14.4174 16.9247 15.0979 16.9248 16.0078 16.9248L42.0957 16.9248C43.0057 16.9248 43.6861 16.9247 44.2256 16.9687C44.7644 17.0128 45.1595 17.1009 45.5 17.2744C46.1032 17.5818 46.594 18.0725 46.9014 18.6758C47.0748 19.0163 47.162 19.4113 47.2061 19.9502C47.2501 20.4897 47.251 21.1699 47.251 22.0801L47.251 34.9678C47.251 35.8777 47.2501 36.5582 47.2061 37.0977C47.162 37.6367 47.0749 38.0325 46.9014 38.373C46.594 38.9763 46.1033 39.467 45.5 39.7744C45.1595 39.9479 44.7644 40.035 44.2256 40.0791C43.6861 40.1232 43.0057 40.123 42.0957 40.123L16.0078 40.123C15.0979 40.123 14.4174 40.1231 13.8779 40.0791C13.3389 40.0351 12.9431 39.9479 12.6025 39.7744C11.9993 39.467 11.5086 38.9763 11.2012 38.373C11.0277 38.0325 10.9405 37.6367 10.8965 37.0977C10.8524 36.5582 10.8525 35.8777 10.8525 34.9678Z" stroke="url(#paint4_radial_6122_38520)" stroke-opacity="0.66" stroke-width="0.0831488"/>
<path d="M10.8525 34.9678L10.8525 22.0801C10.8525 21.1699 10.8524 20.4897 10.8965 19.9502C10.9405 19.4113 11.0277 19.0163 11.2012 18.6758C11.5085 18.0725 11.9993 17.5818 12.6025 17.2744C12.9431 17.1009 13.3389 17.0128 13.8779 16.9687C14.4174 16.9247 15.0979 16.9248 16.0078 16.9248L42.0957 16.9248C43.0057 16.9248 43.6861 16.9247 44.2256 16.9687C44.7644 17.0128 45.1595 17.1009 45.5 17.2744C46.1032 17.5818 46.594 18.0725 46.9014 18.6758C47.0748 19.0163 47.162 19.4113 47.2061 19.9502C47.2501 20.4897 47.251 21.1699 47.251 22.0801L47.251 34.9678C47.251 35.8777 47.2501 36.5582 47.2061 37.0977C47.162 37.6367 47.0749 38.0325 46.9014 38.373C46.594 38.9763 46.1033 39.467 45.5 39.7744C45.1595 39.9479 44.7644 40.035 44.2256 40.0791C43.6861 40.1232 43.0057 40.123 42.0957 40.123L16.0078 40.123C15.0979 40.123 14.4174 40.1231 13.8779 40.0791C13.3389 40.0351 12.9431 39.9479 12.6025 39.7744C11.9993 39.467 11.5086 38.9763 11.2012 38.373C11.0277 38.0325 10.9405 37.6367 10.8965 37.0977C10.8524 36.5582 10.8525 35.8777 10.8525 34.9678Z" stroke="url(#paint5_radial_6122_38520)" stroke-opacity="0.5" stroke-width="0.0831488"/>
</g>
</g>
<path d="M11.2471 35.2021L11.2471 21.8457C11.2471 21.0499 11.2475 20.4542 11.2861 19.9814C11.3247 19.509 11.4017 19.1608 11.5547 18.8604C11.8252 18.3295 12.2572 17.8974 12.7881 17.627C13.0886 17.4739 13.4367 17.397 13.9092 17.3584C14.3819 17.3198 14.9776 17.3193 15.7734 17.3193L42.3291 17.3193C43.1253 17.3193 43.7215 17.3198 44.1943 17.3584C44.6669 17.397 45.0149 17.4738 45.3154 17.627C45.8463 17.8974 46.2774 18.3295 46.5479 18.8604C46.701 19.1609 46.7788 19.5088 46.8174 19.9814C46.856 20.4542 46.8555 21.0499 46.8555 21.8457L46.8555 35.2021C46.8555 35.998 46.856 36.5937 46.8174 37.0664C46.7788 37.539 46.701 37.887 46.5479 38.1875C46.2774 38.7183 45.8463 39.1504 45.3154 39.4209C45.0149 39.574 44.6669 39.6508 44.1943 39.6895C43.7215 39.7281 43.1253 39.7285 42.3291 39.7285L15.7734 39.7285C14.9776 39.7285 14.3819 39.7281 13.9092 39.6895C13.4367 39.6509 13.0886 39.5739 12.7881 39.4209C12.2572 39.1504 11.8252 38.7183 11.5547 38.1875C11.4017 37.887 11.3247 37.5389 11.2861 37.0664C11.2475 36.5937 11.2471 35.998 11.2471 35.2021Z" fill="black"/>
<path d="M11.2471 35.2021L11.2471 21.8457C11.2471 21.0499 11.2475 20.4542 11.2861 19.9814C11.3247 19.509 11.4017 19.1608 11.5547 18.8604C11.8252 18.3295 12.2572 17.8974 12.7881 17.627C13.0886 17.4739 13.4367 17.397 13.9092 17.3584C14.3819 17.3198 14.9776 17.3193 15.7734 17.3193L42.3291 17.3193C43.1253 17.3193 43.7215 17.3198 44.1943 17.3584C44.6669 17.397 45.0149 17.4738 45.3154 17.627C45.8463 17.8974 46.2774 18.3295 46.5479 18.8604C46.701 19.1609 46.7788 19.5088 46.8174 19.9814C46.856 20.4542 46.8555 21.0499 46.8555 21.8457L46.8555 35.2021C46.8555 35.998 46.856 36.5937 46.8174 37.0664C46.7788 37.539 46.701 37.887 46.5479 38.1875C46.2774 38.7183 45.8463 39.1504 45.3154 39.4209C45.0149 39.574 44.6669 39.6508 44.1943 39.6895C43.7215 39.7281 43.1253 39.7285 42.3291 39.7285L15.7734 39.7285C14.9776 39.7285 14.3819 39.7281 13.9092 39.6895C13.4367 39.6509 13.0886 39.5739 12.7881 39.4209C12.2572 39.1504 11.8252 38.7183 11.5547 38.1875C11.4017 37.887 11.3247 37.5389 11.2861 37.0664C11.2475 36.5937 11.2471 35.998 11.2471 35.2021Z" fill="url(#paint6_radial_6122_38520)" fill-opacity="0.2"/>
<path d="M11.2471 35.2021L11.2471 21.8457C11.2471 21.0499 11.2475 20.4542 11.2861 19.9814C11.3247 19.509 11.4017 19.1608 11.5547 18.8604C11.8252 18.3295 12.2572 17.8974 12.7881 17.627C13.0886 17.4739 13.4367 17.397 13.9092 17.3584C14.3819 17.3198 14.9776 17.3193 15.7734 17.3193L42.3291 17.3193C43.1253 17.3193 43.7215 17.3198 44.1943 17.3584C44.6669 17.397 45.0149 17.4738 45.3154 17.627C45.8463 17.8974 46.2774 18.3295 46.5479 18.8604C46.701 19.1609 46.7788 19.5088 46.8174 19.9814C46.856 20.4542 46.8555 21.0499 46.8555 21.8457L46.8555 35.2021C46.8555 35.998 46.856 36.5937 46.8174 37.0664C46.7788 37.539 46.701 37.887 46.5479 38.1875C46.2774 38.7183 45.8463 39.1504 45.3154 39.4209C45.0149 39.574 44.6669 39.6508 44.1943 39.6895C43.7215 39.7281 43.1253 39.7285 42.3291 39.7285L15.7734 39.7285C14.9776 39.7285 14.3819 39.7281 13.9092 39.6895C13.4367 39.6509 13.0886 39.5739 12.7881 39.4209C12.2572 39.1504 11.8252 38.7183 11.5547 38.1875C11.4017 37.887 11.3247 37.5389 11.2861 37.0664C11.2475 36.5937 11.2471 35.998 11.2471 35.2021Z" stroke="black" stroke-width="0.0415744"/>
<path d="M11.2471 35.2021L11.2471 21.8457C11.2471 21.0499 11.2475 20.4542 11.2861 19.9814C11.3247 19.509 11.4017 19.1608 11.5547 18.8604C11.8252 18.3295 12.2572 17.8974 12.7881 17.627C13.0886 17.4739 13.4367 17.397 13.9092 17.3584C14.3819 17.3198 14.9776 17.3193 15.7734 17.3193L42.3291 17.3193C43.1253 17.3193 43.7215 17.3198 44.1943 17.3584C44.6669 17.397 45.0149 17.4738 45.3154 17.627C45.8463 17.8974 46.2774 18.3295 46.5479 18.8604C46.701 19.1609 46.7788 19.5088 46.8174 19.9814C46.856 20.4542 46.8555 21.0499 46.8555 21.8457L46.8555 35.2021C46.8555 35.998 46.856 36.5937 46.8174 37.0664C46.7788 37.539 46.701 37.887 46.5479 38.1875C46.2774 38.7183 45.8463 39.1504 45.3154 39.4209C45.0149 39.574 44.6669 39.6508 44.1943 39.6895C43.7215 39.7281 43.1253 39.7285 42.3291 39.7285L15.7734 39.7285C14.9776 39.7285 14.3819 39.7281 13.9092 39.6895C13.4367 39.6509 13.0886 39.5739 12.7881 39.4209C12.2572 39.1504 11.8252 38.7183 11.5547 38.1875C11.4017 37.887 11.3247 37.5389 11.2861 37.0664C11.2475 36.5937 11.2471 35.998 11.2471 35.2021Z" stroke="url(#paint7_linear_6122_38520)" stroke-width="0.0415744"/>
<path d="M15.3066 38.918C14.1697 38.918 13.6012 38.918 13.167 38.6967C12.785 38.5021 12.4745 38.1915 12.2799 37.8096C12.0586 37.3753 12.0586 36.8069 12.0586 35.67L12.0586 21.3788C12.0586 20.2419 12.0586 19.6734 12.2798 19.2392C12.4745 18.8572 12.785 18.5467 13.167 18.352C13.6012 18.1308 14.1697 18.1308 15.3066 18.1308L42.7977 18.1308C43.9346 18.1308 44.503 18.1308 44.9373 18.352C45.3192 18.5467 45.6298 18.8572 45.8244 19.2392C46.0457 19.6734 46.0457 20.2419 46.0457 21.3788L46.0457 35.67C46.0457 36.8069 46.0457 37.3753 45.8244 37.8096C45.6298 38.1915 45.3192 38.5021 44.9373 38.6967C44.503 38.918 43.9346 38.918 42.7977 38.918L15.3066 38.918Z" fill="url(#paint8_linear_6122_38520)"/>
<path d="M12.1113 35.6699L12.1113 21.3789C12.1113 20.8096 12.1112 20.3857 12.1387 20.0498C12.1661 19.7145 12.2209 19.4712 12.3271 19.2627C12.5167 18.8909 12.8186 18.588 13.1904 18.3984C13.3989 18.2922 13.6423 18.2383 13.9775 18.2109C14.3134 18.1835 14.7373 18.1836 15.3066 18.1836L42.7979 18.1836C43.3671 18.1836 43.7911 18.1835 44.127 18.2109C44.4618 18.2383 44.7048 18.2924 44.9131 18.3984C45.285 18.588 45.5877 18.8908 45.7773 19.2627C45.8836 19.4712 45.9384 19.7145 45.9658 20.0498C45.9933 20.3857 45.9932 20.8096 45.9932 21.3789L45.9932 35.6699C45.9932 36.2392 45.9933 36.6632 45.9658 36.999C45.9384 37.3343 45.8836 37.5777 45.7773 37.7861C45.5877 38.158 45.285 38.4599 44.9131 38.6494C44.7047 38.7556 44.462 38.8105 44.127 38.8379C43.7911 38.8653 43.3671 38.8652 42.7979 38.8652L15.3066 38.8652C14.7373 38.8652 14.3134 38.8653 13.9775 38.8379C13.6423 38.8105 13.3989 38.7556 13.1904 38.6494C12.8188 38.4599 12.5167 38.1578 12.3271 37.7861C12.2209 37.5777 12.1661 37.3343 12.1387 36.999C12.1112 36.6632 12.1113 36.2392 12.1113 35.6699Z" stroke="black" stroke-opacity="0.08" stroke-width="0.105086"/>
</g>
</g>
<defs>
<clipPath id="bgblur_0_6122_38520_clip_path" transform="translate(0 0)"><rect width="58" height="58" rx="29"/>
</clipPath><filter id="filter0_i_6122_38520" x="10.8105" y="16.8838" width="36.4824" height="23.2812" filterUnits="userSpaceOnUse" color-interpolation-filters="sRGB">
<feFlood flood-opacity="0" result="BackgroundImageFix"/>
<feBlend mode="normal" in="SourceGraphic" in2="BackgroundImageFix" result="shape"/>
<feColorMatrix in="SourceAlpha" type="matrix" values="0 0 0 0 0 0 0 0 0 0 0 0 0 0 0 0 0 0 127 0" result="hardAlpha"/>
<feOffset dy="0.0415744"/>
<feComposite in2="hardAlpha" operator="arithmetic" k2="-1" k3="1"/>
<feColorMatrix type="matrix" values="0 0 0 0 1 0 0 0 0 1 0 0 0 0 1 0 0 0 1 0"/>
<feBlend mode="normal" in2="shape" result="effect1_innerShadow_6122_38520"/>
</filter>
<filter id="filter1_f_6122_38520" x="10.7066" y="16.7799" width="36.6903" height="23.4891" filterUnits="userSpaceOnUse" color-interpolation-filters="sRGB">
<feFlood flood-opacity="0" result="BackgroundImageFix"/>
<feBlend mode="normal" in="SourceGraphic" in2="BackgroundImageFix" result="shape"/>
<feGaussianBlur stdDeviation="0.051968" result="effect1_foregroundBlur_6122_38520"/>
</filter>
<radialGradient id="paint0_radial_6122_38520" cx="0" cy="0" r="1" gradientUnits="userSpaceOnUse" gradientTransform="translate(48.4873 19.3778) rotate(158.348) scale(33.3802 16.5475)">
<stop/>
<stop offset="1" stop-opacity="0"/>
</radialGradient>
<radialGradient id="paint1_radial_6122_38520" cx="0" cy="0" r="1" gradientUnits="userSpaceOnUse" gradientTransform="translate(11.4861 33.3053) rotate(-20.4406) scale(21.1303 50.824)">
<stop stop-color="white"/>
<stop offset="1" stop-color="white" stop-opacity="0"/>
</radialGradient>
<radialGradient id="paint2_radial_6122_38520" cx="0" cy="0" r="1" gradientUnits="userSpaceOnUse" gradientTransform="translate(48.4873 19.3778) rotate(158.348) scale(33.3802 16.5475)">
<stop/>
<stop offset="1" stop-opacity="0"/>
</radialGradient>
<radialGradient id="paint3_radial_6122_38520" cx="0" cy="0" r="1" gradientUnits="userSpaceOnUse" gradientTransform="translate(11.4861 33.3053) rotate(-20.4406) scale(21.1303 50.824)">
<stop stop-color="white"/>
<stop offset="1" stop-color="white" stop-opacity="0"/>
</radialGradient>
<radialGradient id="paint4_radial_6122_38520" cx="0" cy="0" r="1" gradientUnits="userSpaceOnUse" gradientTransform="translate(17.2026 19.7936) rotate(2.09641) scale(31.2537)">
<stop offset="0.218947" stop-color="white"/>
<stop offset="0.848867" stop-color="white" stop-opacity="0"/>
</radialGradient>
<radialGradient id="paint5_radial_6122_38520" cx="0" cy="0" r="1" gradientUnits="userSpaceOnUse" gradientTransform="translate(47.9157 27.5368) rotate(180) scale(23.3336 11.5671)">
<stop offset="0.534878"/>
<stop offset="0.86172" stop-opacity="0"/>
</radialGradient>
<radialGradient id="paint6_radial_6122_38520" cx="0" cy="0" r="1" gradientUnits="userSpaceOnUse" gradientTransform="translate(10.8628 16.7792) rotate(35.0067) scale(33.2459 20.9362)">
<stop stop-color="white"/>
<stop offset="1" stop-color="white" stop-opacity="0"/>
</radialGradient>
<linearGradient id="paint7_linear_6122_38520" x1="32.5334" y1="42.8671" x2="32.5334" y2="25.6137" gradientUnits="userSpaceOnUse">
<stop stop-color="white"/>
<stop offset="1" stop-color="white" stop-opacity="0"/>
</linearGradient>
<linearGradient id="paint8_linear_6122_38520" x1="41.9357" y1="14.6099" x2="41.9357" y2="43.4276" gradientUnits="userSpaceOnUse">
<stop stop-color="#A0D6FF"/>
<stop offset="0.836085" stop-color="#F4E4C9"/>
</linearGradient>
<clipPath id="clip1_6122_38520">
<rect width="50.75" height="50.75" fill="white" transform="translate(3.625 3.56445)"/>
</clipPath>
</defs>
</svg>
